<svg width="45" height="45" viewBox="0 0 45 45" fill="none" xmlns="http://www.w3.org/2000/svg">
<path d="M40.8341 7.5H35.5146L27.0973 15.6956C25.8718 16.8843 24.2203 17.5507 22.4996 17.5507C20.7791 17.5507 19.1276 16.8843 17.9022 15.6956L9.49141 7.5H4.16748L15.2424 18.2887C19.2544 22.1936 25.7544 22.1936 29.7636 18.2887L40.8341 7.5ZM4.16748 37.5H9.47052L17.9239 29.2783C19.1447 28.0954 20.79 27.4322 22.5039 27.4322C24.2181 27.4322 25.8634 28.0954 27.0842 29.2783L35.5346 37.5H40.8341L29.7339 26.6978C25.737 22.8118 19.2617 22.8118 15.2677 26.6978L4.16748 37.5Z" fill="white"/>
</svg>
