<svg width="50" height="50" viewBox="0 0 50 50" fill="none" xmlns="http://www.w3.org/2000/svg">
<path d="M25.0021 4.16669C13.4916 4.16669 4.1687 13.4896 4.1687 25C4.1687 34.2188 10.1322 42.0052 18.4135 44.7656C19.4552 44.9479 19.8458 44.3229 19.8458 43.7761C19.8458 43.2813 19.8197 41.6406 19.8197 39.8959C14.5854 40.8594 13.2312 38.6198 12.8145 37.4479C12.5802 36.849 11.5645 35 10.6791 34.5052C9.94995 34.1146 8.90828 33.1511 10.6531 33.125C12.2937 33.099 13.4656 34.6354 13.8562 35.2604C15.7312 38.4115 18.726 37.5261 19.9239 36.9792C20.1062 35.625 20.6531 34.7136 21.2521 34.1927C16.6166 33.6719 11.7729 31.875 11.7729 23.9063C11.7729 21.6406 12.5802 19.7656 13.9083 18.3073C13.7 17.7865 12.9708 15.6511 14.1166 12.7865C14.1166 12.7865 15.8614 12.2396 19.8458 14.9219C21.5125 14.4531 23.2833 14.2188 25.0542 14.2188C26.825 14.2188 28.5958 14.4531 30.2625 14.9219C34.2469 12.2136 35.9917 12.7865 35.9917 12.7865C37.1375 15.6511 36.4083 17.7865 36.2 18.3073C37.5281 19.7656 38.3354 21.6146 38.3354 23.9063C38.3354 31.9011 33.4656 33.6719 28.8302 34.1927C29.5854 34.8438 30.2365 36.0938 30.2365 38.0469C30.2365 40.8334 30.2104 43.0729 30.2104 43.7761C30.2104 44.3229 30.601 44.974 31.6427 44.7656C40.1229 41.9027 45.8331 33.9506 45.8354 25C45.8354 13.4896 36.5125 4.16669 25.0021 4.16669Z" fill="white"/>
</svg>
