<svg width="50" height="50" viewBox="0 0 50 50" fill="none" xmlns="http://www.w3.org/2000/svg">
<path d="M14.4594 10.4165C14.4586 12.113 13.4294 13.6396 11.857 14.2765C10.2846 14.9135 8.48308 14.5335 7.30189 13.3157C6.12071 12.098 5.79575 10.2857 6.48023 8.7335C7.16473 7.18125 8.72198 6.19898 10.4177 6.24987C12.6699 6.31748 14.4604 8.16329 14.4594 10.4165ZM14.5844 17.6665H6.25102V43.7498H14.5844V17.6665ZM27.7511 17.6665H19.4594V43.7498H27.6677V30.0623C27.6677 22.4373 37.6052 21.729 37.6052 30.0623V43.7498H45.8344V27.229C45.8344 14.3749 31.1261 14.854 27.6677 21.1665L27.7511 17.6665Z" fill="white"/>
</svg>
